<svg xmlns="http://www.w3.org/2000/svg" width="330" height="180" viewBox="0 0 330 180" role="img"><title>Languages in public repos</title><desc>TypeScript 57.57%; Python 26.39%; Java 4.45%; Dart 4.41%; CSS 3.67%; JavaScript 3.50%. Code size, not proficiency.</desc><rect x="0.5" y="0.5" width="329" height="179" rx="12" fill="#ffffff" stroke="#d0d7de" /><style>text{font-family:'Segoe UI',Ubuntu,sans-serif;fill:#24292f}.title{font-size:17px;font-weight:600;fill:#235a83}.label{font-size:13px}.value{font-size:14px;font-weight:600}</style><text x="24" y="32" class="title">Languages in public repos</text><rect x="24.000" y="50" width="162.352" height="8" fill="#3178c6" /><rect x="186.352" y="50" width="74.426" height="8" fill="#3572A5" /><rect x="260.779" y="50" width="12.553" height="8" fill="#b07219" /><rect x="273.331" y="50" width="12.451" height="8" fill="#00B4AB" /><rect x="285.783" y="50" width="10.354" height="8" fill="#663399" /><rect x="296.137" y="50" width="9.863" height="8" fill="#f1e05a" /><circle cx="27" cy="80" r="3" fill="#3178c6" /><text x="36" y="84" class="label">TypeScript 57.57%</text><circle cx="27" cy="106" r="3" fill="#3572A5" /><text x="36" y="110" class="label">Python 26.39%</text><circle cx="27" cy="132" r="3" fill="#b07219" /><text x="36" y="136" class="label">Java 4.45%</text><circle cx="184" cy="80" r="3" fill="#00B4AB" /><text x="193" y="84" class="label">Dart 4.41%</text><circle cx="184" cy="106" r="3" fill="#663399" /><text x="193" y="110" class="label">CSS 3.67%</text><circle cx="184" cy="132" r="3" fill="#f1e05a" /><text x="193" y="136" class="label">JavaScript 3.50%</text></svg>